<svg width="87" height="16" viewBox="0 0 87 16" fill="none" xmlns="http://www.w3.org/2000/svg">
<g clip-path="url(#clip0_4_252)">
<path d="M6.81577 1.53058C6.84169 1.47155 6.88172 1.42187 6.93136 1.38713C6.981 1.35239 7.03826 1.33398 7.09668 1.33398C7.15511 1.33398 7.21237 1.35239 7.26201 1.38713C7.31165 1.42187 7.35168 1.47155 7.3776 1.53058L8.74373 4.64991C8.8336 4.85533 8.96642 5.03304 9.13074 5.16776C9.29506 5.30247 9.48596 5.39015 9.68701 5.42325L12.7422 5.92725C12.8001 5.9367 12.8544 5.96423 12.8992 6.00671C12.9439 6.0492 12.9772 6.10495 12.9953 6.16765C13.0134 6.23036 13.0156 6.29752 13.0015 6.36154C12.9875 6.42556 12.9579 6.48388 12.916 6.52991L10.7066 8.95525C10.5607 9.11521 10.4516 9.31279 10.3887 9.53092C10.3257 9.74905 10.3108 9.98117 10.3452 10.2072L10.8668 13.6339C10.8771 13.6991 10.8708 13.7663 10.8488 13.8277C10.8268 13.8891 10.7899 13.9423 10.7424 13.9812C10.6948 14.0202 10.6386 14.0432 10.5799 14.0478C10.5213 14.0524 10.4627 14.0384 10.4109 14.0072L7.6798 12.3886C7.49988 12.282 7.29966 12.2262 7.09639 12.2262C6.89312 12.2262 6.6929 12.282 6.51297 12.3886L3.78249 14.0072C3.73064 14.0382 3.67213 14.0521 3.61362 14.0474C3.5551 14.0427 3.49893 14.0196 3.45148 13.9807C3.40404 13.9418 3.36723 13.8887 3.34524 13.8274C3.32326 13.7661 3.31698 13.699 3.32711 13.6339L3.84814 10.2079C3.88266 9.98173 3.86779 9.74948 3.80484 9.53123C3.74188 9.31297 3.63272 9.11528 3.48679 8.95525L1.27733 6.53058C1.2351 6.4846 1.20517 6.42618 1.19096 6.36196C1.17675 6.29775 1.17882 6.23033 1.19695 6.16737C1.21507 6.10442 1.24851 6.04847 1.29346 6.0059C1.33841 5.96333 1.39307 5.93585 1.4512 5.92658L4.50577 5.42325C4.70703 5.39036 4.89817 5.30277 5.06271 5.16804C5.22725 5.03332 5.36025 4.8555 5.45023 4.64991L6.81577 1.53058Z" fill="#F8701B" stroke="#F8701B" stroke-width="2" stroke-linecap="round" stroke-linejoin="round"/>
</g>
<g clip-path="url(#clip1_4_252)">
<path d="M24.8158 1.53058C24.8417 1.47155 24.8817 1.42187 24.9314 1.38713C24.981 1.35239 25.0383 1.33398 25.0967 1.33398C25.1551 1.33398 25.2124 1.35239 25.262 1.38713C25.3116 1.42187 25.3517 1.47155 25.3776 1.53058L26.7437 4.64991C26.8336 4.85533 26.9664 5.03304 27.1307 5.16776C27.2951 5.30247 27.486 5.39015 27.687 5.42325L30.7422 5.92725C30.8001 5.9367 30.8544 5.96423 30.8992 6.00671C30.9439 6.0492 30.9772 6.10495 30.9953 6.16765C31.0134 6.23036 31.0156 6.29752 31.0015 6.36154C30.9875 6.42556 30.9579 6.48388 30.916 6.52991L28.7066 8.95525C28.5607 9.11521 28.4516 9.31279 28.3887 9.53092C28.3257 9.74905 28.3108 9.98117 28.3452 10.2072L28.8668 13.6339C28.8771 13.6991 28.8708 13.7663 28.8488 13.8277C28.8268 13.8891 28.7899 13.9423 28.7424 13.9812C28.6948 14.0202 28.6386 14.0432 28.5799 14.0478C28.5213 14.0524 28.4627 14.0384 28.4109 14.0072L25.6798 12.3886C25.4999 12.282 25.2997 12.2262 25.0964 12.2262C24.8931 12.2262 24.6929 12.282 24.513 12.3886L21.7825 14.0072C21.7306 14.0382 21.6721 14.0521 21.6136 14.0474C21.5551 14.0427 21.4989 14.0196 21.4515 13.9807C21.404 13.9418 21.3672 13.8887 21.3452 13.8274C21.3233 13.7661 21.317 13.699 21.3271 13.6339L21.8481 10.2079C21.8827 9.98173 21.8678 9.74948 21.8048 9.53123C21.7419 9.31297 21.6327 9.11528 21.4868 8.95525L19.2773 6.53058C19.2351 6.4846 19.2052 6.42618 19.191 6.36196C19.1768 6.29775 19.1788 6.23033 19.1969 6.16737C19.2151 6.10442 19.2485 6.04847 19.2935 6.0059C19.3384 5.96333 19.3931 5.93585 19.4512 5.92658L22.5058 5.42325C22.707 5.39036 22.8982 5.30277 23.0627 5.16804C23.2273 5.03332 23.3602 4.8555 23.4502 4.64991L24.8158 1.53058Z" fill="#F8701B" stroke="#F8701B" stroke-width="2" stroke-linecap="round" stroke-linejoin="round"/>
</g>
<g clip-path="url(#clip2_4_252)">
<path d="M42.8158 1.53058C42.8417 1.47155 42.8817 1.42187 42.9314 1.38713C42.981 1.35239 43.0383 1.33398 43.0967 1.33398C43.1551 1.33398 43.2124 1.35239 43.262 1.38713C43.3116 1.42187 43.3517 1.47155 43.3776 1.53058L44.7437 4.64991C44.8336 4.85533 44.9664 5.03304 45.1307 5.16776C45.2951 5.30247 45.486 5.39015 45.687 5.42325L48.7422 5.92725C48.8001 5.9367 48.8544 5.96423 48.8992 6.00671C48.9439 6.0492 48.9772 6.10495 48.9953 6.16765C49.0134 6.23036 49.0156 6.29752 49.0015 6.36154C48.9875 6.42556 48.9579 6.48388 48.916 6.52991L46.7066 8.95525C46.5607 9.11521 46.4516 9.31279 46.3887 9.53092C46.3257 9.74905 46.3108 9.98117 46.3452 10.2072L46.8668 13.6339C46.8771 13.6991 46.8708 13.7663 46.8488 13.8277C46.8268 13.8891 46.7899 13.9423 46.7424 13.9812C46.6948 14.0202 46.6386 14.0432 46.5799 14.0478C46.5213 14.0524 46.4627 14.0384 46.4109 14.0072L43.6798 12.3886C43.4999 12.282 43.2997 12.2262 43.0964 12.2262C42.8931 12.2262 42.6929 12.282 42.513 12.3886L39.7825 14.0072C39.7306 14.0382 39.6721 14.0521 39.6136 14.0474C39.5551 14.0427 39.4989 14.0196 39.4515 13.9807C39.404 13.9418 39.3672 13.8887 39.3452 13.8274C39.3233 13.7661 39.317 13.699 39.3271 13.6339L39.8481 10.2079C39.8827 9.98173 39.8678 9.74948 39.8048 9.53123C39.7419 9.31297 39.6327 9.11528 39.4868 8.95525L37.2773 6.53058C37.2351 6.4846 37.2052 6.42618 37.191 6.36196C37.1768 6.29775 37.1788 6.23033 37.1969 6.16737C37.2151 6.10442 37.2485 6.04847 37.2935 6.0059C37.3384 5.96333 37.3931 5.93585 37.4512 5.92658L40.5058 5.42325C40.707 5.39036 40.8982 5.30277 41.0627 5.16804C41.2273 5.03332 41.3602 4.8555 41.4502 4.64991L42.8158 1.53058Z" fill="#F8701B" stroke="#F8701B" stroke-width="2" stroke-linecap="round" stroke-linejoin="round"/>
</g>
<g clip-path="url(#clip3_4_252)">
<path d="M60.8158 1.53058C60.8417 1.47155 60.8817 1.42187 60.9314 1.38713C60.981 1.35239 61.0383 1.33398 61.0967 1.33398C61.1551 1.33398 61.2124 1.35239 61.262 1.38713C61.3116 1.42187 61.3517 1.47155 61.3776 1.53058L62.7437 4.64991C62.8336 4.85533 62.9664 5.03304 63.1307 5.16776C63.2951 5.30247 63.486 5.39015 63.687 5.42325L66.7422 5.92725C66.8001 5.9367 66.8544 5.96423 66.8992 6.00671C66.9439 6.0492 66.9772 6.10495 66.9953 6.16765C67.0134 6.23036 67.0156 6.29752 67.0015 6.36154C66.9875 6.42556 66.9579 6.48388 66.916 6.52991L64.7066 8.95525C64.5607 9.11521 64.4516 9.31279 64.3887 9.53092C64.3257 9.74905 64.3108 9.98117 64.3452 10.2072L64.8668 13.6339C64.8771 13.6991 64.8708 13.7663 64.8488 13.8277C64.8268 13.8891 64.7899 13.9423 64.7424 13.9812C64.6948 14.0202 64.6386 14.0432 64.5799 14.0478C64.5213 14.0524 64.4627 14.0384 64.4109 14.0072L61.6798 12.3886C61.4999 12.282 61.2997 12.2262 61.0964 12.2262C60.8931 12.2262 60.6929 12.282 60.513 12.3886L57.7825 14.0072C57.7306 14.0382 57.6721 14.0521 57.6136 14.0474C57.5551 14.0427 57.4989 14.0196 57.4515 13.9807C57.404 13.9418 57.3672 13.8887 57.3452 13.8274C57.3233 13.7661 57.317 13.699 57.3271 13.6339L57.8481 10.2079C57.8827 9.98173 57.8678 9.74948 57.8048 9.53123C57.7419 9.31297 57.6327 9.11528 57.4868 8.95525L55.2773 6.53058C55.2351 6.4846 55.2052 6.42618 55.191 6.36196C55.1768 6.29775 55.1788 6.23033 55.1969 6.16737C55.2151 6.10442 55.2485 6.04847 55.2935 6.0059C55.3384 5.96333 55.3931 5.93585 55.4512 5.92658L58.5058 5.42325C58.707 5.39036 58.8982 5.30277 59.0627 5.16804C59.2273 5.03332 59.3602 4.8555 59.4502 4.64991L60.8158 1.53058Z" fill="#F8701B" stroke="#F8701B" stroke-width="2" stroke-linecap="round" stroke-linejoin="round"/>
</g>
<g clip-path="url(#clip4_4_252)">
<path d="M78.8158 1.53058C78.8417 1.47155 78.8817 1.42187 78.9314 1.38713C78.981 1.35239 79.0383 1.33398 79.0967 1.33398C79.1551 1.33398 79.2124 1.35239 79.262 1.38713C79.3116 1.42187 79.3517 1.47155 79.3776 1.53058L80.7437 4.64991C80.8336 4.85533 80.9664 5.03304 81.1307 5.16776C81.2951 5.30247 81.486 5.39015 81.687 5.42325L84.7422 5.92725C84.8001 5.9367 84.8544 5.96423 84.8992 6.00671C84.9439 6.0492 84.9772 6.10495 84.9953 6.16765C85.0134 6.23036 85.0156 6.29752 85.0015 6.36154C84.9875 6.42556 84.9579 6.48388 84.916 6.52991L82.7066 8.95525C82.5607 9.11521 82.4516 9.31279 82.3887 9.53092C82.3257 9.74905 82.3108 9.98117 82.3452 10.2072L82.8668 13.6339C82.8771 13.6991 82.8708 13.7663 82.8488 13.8277C82.8268 13.8891 82.7899 13.9423 82.7424 13.9812C82.6948 14.0202 82.6386 14.0432 82.5799 14.0478C82.5213 14.0524 82.4627 14.0384 82.4109 14.0072L79.6798 12.3886C79.4999 12.282 79.2997 12.2262 79.0964 12.2262C78.8931 12.2262 78.6929 12.282 78.513 12.3886L75.7825 14.0072C75.7306 14.0382 75.6721 14.0521 75.6136 14.0474C75.5551 14.0427 75.4989 14.0196 75.4515 13.9807C75.404 13.9418 75.3672 13.8887 75.3452 13.8274C75.3233 13.7661 75.317 13.699 75.3271 13.6339L75.8481 10.2079C75.8827 9.98173 75.8678 9.74948 75.8048 9.53123C75.7419 9.31297 75.6327 9.11528 75.4868 8.95525L73.2773 6.53058C73.2351 6.4846 73.2052 6.42618 73.191 6.36196C73.1768 6.29775 73.1788 6.23033 73.1969 6.16737C73.2151 6.10442 73.2485 6.04847 73.2935 6.0059C73.3384 5.96333 73.3931 5.93585 73.4512 5.92658L76.5058 5.42325C76.707 5.39036 76.8982 5.30277 77.0627 5.16804C77.2273 5.03332 77.3602 4.8555 77.4502 4.64991L78.8158 1.53058Z" fill="#F8701B" stroke="#F8701B" stroke-width="2" stroke-linecap="round" stroke-linejoin="round"/>
</g>
<defs>
<clipPath id="clip0_4_252">
<rect width="14.1935" height="16" fill="white"/>
</clipPath>
<clipPath id="clip1_4_252">
<rect width="14.1935" height="16" fill="white" transform="translate(18)"/>
</clipPath>
<clipPath id="clip2_4_252">
<rect width="14.1935" height="16" fill="white" transform="translate(36)"/>
</clipPath>
<clipPath id="clip3_4_252">
<rect width="14.1935" height="16" fill="white" transform="translate(54)"/>
</clipPath>
<clipPath id="clip4_4_252">
<rect width="14.1935" height="16" fill="white" transform="translate(72)"/>
</clipPath>
</defs>
</svg>
